<svg id="visual" viewBox="0 0 900 600" width="900" height="600" xmlns="http://www.w3.org/2000/svg" xmlns:xlink="http://www.w3.org/1999/xlink" version="1.1"><rect x="0" y="0" width="900" height="600" fill="#4D3487"></rect><path d="M0 349L21.5 354C43 359 86 369 128.8 381.5C171.7 394 214.3 409 257.2 417.5C300 426 343 428 385.8 423.8C428.7 419.7 471.3 409.3 514.2 397.2C557 385 600 371 642.8 368C685.7 365 728.3 373 771.2 380.7C814 388.3 857 395.7 878.5 399.3L900 403L900 601L878.5 601C857 601 814 601 771.2 601C728.3 601 685.7 601 642.8 601C600 601 557 601 514.2 601C471.3 601 428.7 601 385.8 601C343 601 300 601 257.2 601C214.3 601 171.7 601 128.8 601C86 601 43 601 21.5 601L0 601Z" fill="#3a1352"></path><path d="M0 453L21.5 448.2C43 443.3 86 433.7 128.8 425.2C171.7 416.7 214.3 409.3 257.2 414C300 418.7 343 435.3 385.8 436.2C428.7 437 471.3 422 514.2 417.8C557 413.7 600 420.3 642.8 424.8C685.7 429.3 728.3 431.7 771.2 437.8C814 444 857 454 878.5 459L900 464L900 601L878.5 601C857 601 814 601 771.2 601C728.3 601 685.7 601 642.8 601C600 601 557 601 514.2 601C471.3 601 428.7 601 385.8 601C343 601 300 601 257.2 601C214.3 601 171.7 601 128.8 601C86 601 43 601 21.5 601L0 601Z" fill="#641b65"></path><path d="M0 448L21.5 450.3C43 452.7 86 457.3 128.8 461.7C171.7 466 214.3 470 257.2 468.7C300 467.3 343 460.7 385.8 462.8C428.7 465 471.3 476 514.2 484.2C557 492.3 600 497.7 642.8 501C685.7 504.3 728.3 505.7 771.2 497.7C814 489.7 857 472.3 878.5 463.7L900 455L900 601L878.5 601C857 601 814 601 771.2 601C728.3 601 685.7 601 642.8 601C600 601 557 601 514.2 601C471.3 601 428.7 601 385.8 601C343 601 300 601 257.2 601C214.3 601 171.7 601 128.8 601C86 601 43 601 21.5 601L0 601Z" fill="#912374"></path><path d="M0 482L21.5 483.5C43 485 86 488 128.8 492.8C171.7 497.7 214.3 504.3 257.2 509.3C300 514.3 343 517.7 385.8 513.8C428.7 510 471.3 499 514.2 500.2C557 501.3 600 514.7 642.8 514.5C685.7 514.3 728.3 500.7 771.2 501.5C814 502.3 857 517.7 878.5 525.3L900 533L900 601L878.5 601C857 601 814 601 771.2 601C728.3 601 685.7 601 642.8 601C600 601 557 601 514.2 601C471.3 601 428.7 601 385.8 601C343 601 300 601 257.2 601C214.3 601 171.7 601 128.8 601C86 601 43 601 21.5 601L0 601Z" fill="#bf2e7e"></path><path d="M0 561L21.5 561.5C43 562 86 563 128.8 563C171.7 563 214.3 562 257.2 559C300 556 343 551 385.8 546.3C428.7 541.7 471.3 537.3 514.2 538.3C557 539.3 600 545.7 642.8 550.3C685.7 555 728.3 558 771.2 560.7C814 563.3 857 565.7 878.5 566.8L900 568L900 601L878.5 601C857 601 814 601 771.2 601C728.3 601 685.7 601 642.8 601C600 601 557 601 514.2 601C471.3 601 428.7 601 385.8 601C343 601 300 601 257.2 601C214.3 601 171.7 601 128.8 601C86 601 43 601 21.5 601L0 601Z" fill="#ec3d82"></path></svg>